<?xml version="1.0" encoding="UTF-8" standalone="no"?>
<!-- Created with Inkscape (http://www.inkscape.org/) -->

<svg
   xmlns:dc="http://purl.org/dc/elements/1.1/"
   xmlns:cc="http://creativecommons.org/ns#"
   xmlns:rdf="http://www.w3.org/1999/02/22-rdf-syntax-ns#"
   xmlns:svg="http://www.w3.org/2000/svg"
   xmlns="http://www.w3.org/2000/svg"
   xmlns:sodipodi="http://sodipodi.sourceforge.net/DTD/sodipodi-0.dtd"
   xmlns:inkscape="http://www.inkscape.org/namespaces/inkscape"
   version="1.1"
   id="svg6090"
   width="2030.8228"
   height="403"
   viewBox="0 0 2030.8228 403"
   sodipodi:docname="gymsense.svg"
   inkscape:version="0.92.4 (5da689c313, 2019-01-14)">
  <metadata
     id="metadata6096">
    <rdf:RDF>
      <cc:Work
         rdf:about="">
        <dc:format>image/svg+xml</dc:format>
        <dc:type
           rdf:resource="http://purl.org/dc/dcmitype/StillImage" />
        <dc:title></dc:title>
      </cc:Work>
    </rdf:RDF>
  </metadata>
  <defs>
  <style>



  </defs>
  
  <path
     id="path6123"
     d="M 342,300.16626 V 197.33252 l -42.25,-46.28971 c -23.2375,-25.45934 -42.55587,-47.02166 -42.92971,-47.91626 -0.99371,-2.37793 -0.94212,-95.38606 0.0538,-96.95703 0.91941,-1.45031 2.68704,0.427 73.94815,78.536673 23.99131,26.296997 41.75187,44.980657 42.46017,44.667027 C 373.95208,129.07669 389.8,111.99759 408.5,91.419663 l 34,-37.41441 34.55,-0.003 c 23.6496,-0.002 34.89472,-0.34735 35.64264,-1.09527 0.79019,-0.79019 1.65778,-0.79019 3.13426,0 1.12289,0.60095 5.2212,1.09264 9.10736,1.09264 4.54094,0 7.06574,0.39949 7.06574,1.11798 0,0.6149 -1.35,2.65556 -3,4.5348 -1.65,1.87925 -2.98246,3.73865 -2.96102,4.13202 0.0775,1.42168 101.52523,111.700177 103.02048,111.988127 0.94945,0.18285 22.34838,-22.4964 56.13037,-59.48871 66.26192,-72.558827 58.87992,-64.781747 59.92521,-63.132317 0.46988,0.74145 0.86123,51.860597 0.86965,113.598097 0.009,63.13484 0.3967,112.25 0.88695,112.25 0.4794,0 9.07599,-9 19.10353,-20 l 18.2319,-20 h 64.21493 64.2149 l 9.6489,-10.64839 c 5.3068,-5.85661 9.412,-11.03161 9.1225,-11.5 C 931.1188,216.38322 894.2335,216 849.44098,216 H 768 v -49.9028 -49.90281 l 29.10282,-31.932097 29.10282,-31.9321 149.14716,-0.66472 c 234.005,-1.04293 283.1899,-0.92137 284.5382,0.70321 0.8104,0.97644 1.0604,11.0785 0.8725,35.25 L 1260.5,121.5 l -117.4384,0.25415 c -93.2902,0.20189 -117.6022,-0.004 -118.2347,-1 -0.438,-0.68978 -0.8032,-9.22753 -0.8116,-18.97277 -0.012,-13.802927 -0.2915,-17.594687 -1.2653,-17.157857 -0.6875,0.30842 -6.9995,6.93179 -14.0266,14.71862 C 1001.6963,107.12896 994.125,115.4125 991.8983,117.75 L 987.8496,122 H 923.998 860.14637 l -9.82319,10.55231 c -5.40275,5.80378 -9.97318,10.97878 -10.15651,11.5 C 839.9585,144.64414 870.06191,145 920.3349,145 c 44.2758,0 81.2133,0.27314 82.0833,0.60699 1.4137,0.54248 1.5778,5.88258 1.5446,50.25 l -0.037,49.64301 -29.5071,32.25855 -29.5071,32.25856 -111.70566,-0.46741 C 714.23973,309.05192 687.37732,308.55803 685.29545,306.83024 684.27164,305.98055 684,296.74689 684,262.79422 c 0,-33.60778 -0.26843,-42.87141 -1.23297,-42.5499 -0.67813,0.22605 -12.71563,12.94246 -26.75,28.25869 -14.03437,15.31623 -25.96705,27.99379 -26.51707,28.17235 -0.55002,0.17857 -12.66452,-12.50034 -26.92111,-28.17535 C 588.32226,232.82501 576.28477,220 575.82889,220 575.373,220 575,239.03899 575,262.30887 c 0,32.26983 -0.2966,42.71399 -1.25,44.01624 -1.13756,1.55378 -3.90366,1.68342 -30.75,1.44113 L 513.5,307.5 513.2457,194.0457 C 513.10584,131.64584 512.61848,80.218483 512.16268,79.762683 511.51441,79.114413 425.26251,172.39931 406.99539,193.50533 L 403,198.12164 402.9628,268.31082 402.9256,338.5 373.42628,370.75 C 357.20159,388.4875 343.49335,403 342.96345,403 342.35176,403 342,365.45461 342,300.16626 Z m 1090.3939,-30.0497 c -45.5916,-50.02479 -83.4564,-91.20158 -84.1439,-91.50398 -0.9928,-0.43668 -1.25,12.79286 -1.25,64.29636 0,53.68282 -0.2358,65.04188 -1.3698,65.98304 -0.9745,0.80871 -10.428,1.06055 -32.75,0.87245 L 1281.5,309.5 1281.2468,154.75 C 1281.0849,55.762603 1281.3418,0 1281.9592,0 c 0.531,0 38.4449,41.140363 84.2531,91.423023 45.8083,50.282667 83.8469,91.457667 84.5305,91.499997 0.9759,0.0605 1.2979,-13.93044 1.5,-65.17302 l 0.2572,-65.249997 31.9321,-0.26429 c 24.8808,-0.20594 32.1094,0.0149 32.7347,1 0.4414,0.69536 0.8095,51.326787 0.8179,112.514287 0.01,61.1875 0.3755,111.25 0.8157,111.25 0.4403,0 8.583,-8.55 18.0949,-19 l 17.2945,-19 h 64.2236 64.2235 l 9.6489,-10.64839 c 5.3068,-5.85661 9.412,-11.03161 9.1225,-11.5 C 1701.1188,216.38322 1664.2335,216 1619.441,216 H 1538 v -49.9028 -49.90281 l 29.1028,-31.932097 29.1028,-31.9321 149.1472,-0.66472 c 234.005,-1.04293 283.1899,-0.92137 284.5382,0.70321 0.8104,0.97644 1.0604,11.0785 0.8725,35.25 L 2030.5,121.5 l -117.4384,0.25415 c -93.2902,0.20189 -117.6022,-0.004 -118.2347,-1 -0.438,-0.68978 -0.8032,-9.22753 -0.8116,-18.97277 -0.012,-13.802927 -0.2915,-17.594687 -1.2653,-17.157857 -0.6875,0.30842 -6.9995,6.93179 -14.0266,14.71862 -7.0271,7.786817 -14.5984,16.070357 -16.8251,18.407857 l -4.0487,4.25 h -63.8516 -63.8516 l -9.8232,10.55231 c -5.4028,5.80378 -9.9732,10.97878 -10.1565,11.5 -0.2082,0.59183 29.8952,0.94769 80.1682,0.94769 44.2758,0 81.2133,0.27314 82.0833,0.60699 1.4137,0.54248 1.5778,5.88258 1.5446,50.25 l -0.037,49.64301 -29.4993,32.25 -29.4993,32.25 h -98.4463 -98.4463 l -0.2671,25.16717 c -0.1835,17.28028 -0.6138,25.28255 -1.3733,25.53536 -0.6083,0.20251 -38.4083,-40.56118 -84,-90.58597 z m -407.1898,38.68755 c -1.3913,-1.39134 -1.749,-66.39764 -0.3772,-68.55826 0.6325,-0.99627 24.9445,-1.20189 118.2347,-1 L 1260.5,239.5 v 35 35 l -117.0459,0.25411 c -90.2079,0.19584 -117.322,-0.022 -118.25,-0.95 z m 770,0 c -1.3913,-1.39134 -1.749,-66.39764 -0.3772,-68.55826 0.6325,-0.99627 24.9445,-1.20189 118.2347,-1 L 2030.5,239.5 v 35 35 l -117.0459,0.25411 c -90.2079,0.19584 -117.322,-0.022 -118.25,-0.95 z M 0.67085,307.33752 C 0.30188,306.96855 0,264.00827 0,211.87023 v -94.79644 l 28.75,-31.533917 28.75,-31.53393 87.75,-0.003 c 52.35263,-0.002 87.75,0.36585 87.75,0.91134 0,1.38058 -56.71104,63.398897 -59.27384,64.820947 -1.66581,0.92433 -12.72589,1.23897 -43.93919,1.25 l -41.71302,0.0148 -13.53653,14.75 -13.53652,14.75 0.24955,45 0.24955,45 h 54.5 54.5 v -13 -13 l -50.25,-0.25925 C 91.64319,214.09319 70,213.5971 70,213.08898 c 0,-1.34668 56.76694,-63.40128 59.30055,-64.82421 1.66239,-0.93363 14.16414,-1.23512 51.19945,-1.23469 26.95,3.2e-4 49.56523,0.35943 50.25606,0.79803 0.9944,0.63132 1.20272,17.3463 1,80.23469 L 231.5,307.50003 116.42085,307.75421 c -63.29353,0.1398 -115.38103,-0.0477 -115.75,-0.41666 z M 1024.6086,214.42232 C 1024.2739,213.55008 1024,198.07833 1024,180.04066 c 0,-26.40154 0.2647,-33.01543 1.3575,-33.92238 0.9935,-0.82453 32.6994,-1.05846 118.25,-0.87244 L 1260.5,145.5 v 35 35 l -117.6414,0.2541 c -106.6279,0.23032 -117.6984,0.10563 -118.25,-1.33178 z m 770,0 C 1794.2739,213.55008 1794,198.07833 1794,180.04066 c 0,-26.40154 0.2647,-33.01543 1.3575,-33.92238 0.9935,-0.82453 32.6994,-1.05846 118.25,-0.87244 L 2030.5,145.5 v 35 35 l -117.6414,0.2541 c -106.6279,0.23032 -117.6984,0.10563 -118.25,-1.33178 z"
     style="fill:#e52626" />
  <path
     id="path6121"
     d="m 346,293.78874 v -98.3579 L 303.54197,148.96542 261.08393,102.5 l -0.042,-43.371967 c -0.041,-42.370663 0.002,-43.340303 1.85045,-42.000003 1.04082,0.75458 25.65576,27.471973 54.69985,59.371973 29.0441,31.899997 53.28001,58.330177 53.85759,58.733737 0.57758,0.40356 1.37275,0.62856 1.76704,0.5 0.3943,-0.12856 16.31389,-17.33374 35.37688,-38.233737 19.06299,-20.9 35.24884,-38.3436 35.96854,-38.76356 0.71971,-0.41996 16.30011,-0.64496 34.62312,-0.5 l 33.3146,0.26356 0.29422,6.11538 0.29423,6.11537 -53.29423,58.436257 C 430.4824,161.30695 404.8125,189.49383 402.75,191.80451 L 399,196.00576 398.9699,266.25288 398.9398,336.5 373.83862,364 C 360.03297,379.125 348.1215,391.6455 347.36869,391.82332 346.2175,392.09527 346,376.51719 346,293.78874 Z M 1431.7637,268.75 c -45.8186,-50.1875 -83.7469,-91.25 -84.2851,-91.25 -0.6256,0 -1.0714,23.7187 -1.2358,65.75 l -0.2572,65.75 h -31.9737 -31.9738 l -0.5429,-2.25 c -1.037,-4.29834 -0.047,-305.06985 1.0048,-305.34283 0.55,-0.14271 38.5104,40.903823 84.3565,91.214503 45.8461,50.310687 83.8711,91.302527 84.5,91.092987 0.8356,-0.2784 1.2781,-17.99557 1.6435,-65.79782 l 0.5,-65.416837 h 31.5 31.5 l 0.2543,112.822497 c 0.2179,96.68236 0.4568,112.77636 1.6697,112.5 0.7785,-0.17738 9.1262,-8.76 18.5505,-19.0725 L 1554.1096,240 h 64.0026 64.0026 l 6.7802,-7.25 c 11.3927,-12.18204 14.0962,-15.42551 13.4204,-16.10131 C 1701.9586,216.29191 1665.5535,216 1621.4151,216 c -44.1383,0 -80.9633,-0.27314 -81.8333,-0.60699 -1.4126,-0.54204 -1.5818,-5.83858 -1.5818,-49.5014 v -48.89442 l 25.25,-27.727787 c 13.8875,-15.25028 27.3048,-29.87465 29.8162,-32.49859 l 4.5661,-4.77081 h 216.1968 216.1968 l -0.2629,34.75 L 2029.5,121.5 h -117 -117 l -0.2734,-18.47342 c -0.1504,-10.160387 -0.6535,-18.853517 -1.1181,-19.318077 -0.4646,-0.46456 -8.1576,7.17348 -17.0955,16.973417 -8.938,9.79995 -17.1473,18.60558 -18.2428,19.56808 -1.8524,1.62756 -6.4549,1.75 -65.7835,1.75 h -63.7917 l -10.1976,11.09994 c -5.9934,6.52379 -9.8289,11.46857 -9.3034,11.99408 0.5066,0.50662 36.1962,1.00505 82.3501,1.15006 L 1773.5,146.5 l 0.2595,48.7044 0.2595,48.7044 -3.2517,3.7956 c -5.8641,6.84507 -43.9537,48.65182 -50.1513,55.0456 l -6.0582,6.25 h -97.5789 c -74.5614,0 -97.862,0.28306 -98.7789,1.2 -0.8675,0.86749 -1.2,7.93333 -1.2,25.5 0,14.94405 -0.3715,24.3 -0.9649,24.3 -0.5307,0 -38.4528,-41.0625 -84.2714,-91.25 z M 1509,325.04044 v -14.95956 l -8.1695,-0.29044 c -4.4932,-0.15974 -8.3183,-0.74072 -8.5002,-1.29107 -0.1819,-0.55034 3.4944,-5.17045 8.1695,-10.26691 L 1509,288.96618 V 174.48309 60.000003 h -23.893 c -20.8648,0 -23.97,0.20048 -24.5,1.58179 -0.3339,0.86998 -0.607,33.53248 -0.607,72.583327 0,41.32694 -0.3738,70.86223 -0.8944,70.66821 -0.4919,-0.18333 -38.5836,-41.64409 -84.6483,-92.13501 -46.3813,-50.837937 -84.1355,-91.420077 -84.6091,-90.946487 -0.4704,0.47036 -0.7411,63.60611 -0.6017,140.301677 L 1289.5,301.5 h 24 24 l 0.5,-72 c 0.3732,-53.73554 0.7947,-72 1.6619,-72 0.6391,0 38.6291,41.0625 84.4223,91.25 45.7933,50.1875 83.6329,91.25 84.0881,91.25 0.4552,0 0.8277,-6.7318 0.8277,-14.95956 z M 1738.4615,271.80728 1766,241.61457 v -43.7003 c 0,-38.92646 -0.1728,-43.7666 -1.5818,-44.30728 -0.87,-0.33385 -40.02,-0.60699 -87,-0.60699 -58.3924,0 -85.4182,-0.32859 -85.4182,-1.03855 0,-0.5712 7.5625,-9.2337 16.8055,-19.25 L 1625.6109,114.5 1690.2226,114 c 35.5364,-0.275 64.782,-0.725 64.9903,-1 0.2083,-0.275 7.3331,-8.15067 15.8329,-17.501497 8.4998,-9.35082 17.3667,-19.12827 19.7042,-21.72765 4.1835,-4.65224 5.2132,-8.0973 3.643,-12.18906 -0.5477,-1.42732 -10.0447,-1.58145 -97.25,-1.57832 l -96.643,0.003 -22,24.10574 c -12.1,13.25816 -24.3672,26.790677 -27.2605,30.072277 l -5.2604,5.96654 0.2604,43.67425 0.2605,43.67426 86.8223,0.25554 c 74.2287,0.21847 86.7755,0.46067 86.5,1.6698 -0.1773,0.77785 -7.7186,9.55035 -16.7585,19.49446 L 1686.6276,247 h -64.1866 -64.1865 l -19.477,21.28502 c -10.7124,11.70676 -19.9946,22.25218 -20.6273,23.43426 -1.4979,2.79893 -1.4718,7.5591 0.05,9.08072 0.9166,0.91663 23.8137,1.2 96.9615,1.2 h 95.7615 l 27.5385,-30.19272 z M 2022.393,112.41821 c 0.7919,-2.06371 0.7919,-48.772707 0,-50.836417 -0.5481,-1.42832 -10.6749,-1.58179 -104.3779,-1.58179 h -103.7709 l -5.6221,6.40368 -5.6221,6.40369 V 93.403683 114 h 109.393 c 98.8296,0 109.4516,-0.15274 110,-1.58179 z M 722.58936,306.5 723.21682,304 h -16.40841 c -11.42876,0 -16.77259,-0.36418 -17.60841,-1.2 -0.89878,-0.89878 -1.2,-12.82222 -1.2,-47.5 0,-25.465 -0.38752,-46.3 -0.86116,-46.3 -0.47364,0 -13.37423,13.74344 -28.66798,30.54097 -17.13851,18.82368 -28.39906,30.42692 -29.35048,30.2437 -0.84902,-0.16351 -13.89188,-13.79445 -28.98415,-30.29098 C 585.04396,222.99716 572.2017,209.5 571.59787,209.5 c -0.7745,0 -1.24514,13.84368 -1.59787,47 l -0.5,47 h -26 -26 l -0.25422,-115.43106 -0.25422,-115.431047 2.17853,-2.31895 c 1.1982,-1.27542 2.70797,-2.31894 3.35506,-2.31894 0.64708,0 24.75614,25.86724 53.57568,57.482747 28.81954,31.61551 52.84917,57.34779 53.39917,57.18285 0.55,-0.16494 25.42853,-27.04468 55.28562,-59.73275 29.8571,-32.688067 54.71762,-59.582187 55.24561,-59.764717 0.60851,-0.21036 1.05312,40.032887 1.21438,109.916697 0.18603,80.62323 0.55692,110.3494 1.38022,110.62381 0.61921,0.20639 10.21015,-9.54363 21.31322,-21.6667 L 784.12643,240 h 63.99417 63.9942 l 6.7802,-7.25 c 11.3927,-12.18204 14.0962,-15.42551 13.4204,-16.10131 C 931.9586,216.29191 895.5535,216 851.41512,216 807.27677,216 770.45177,215.72686 769.58179,215.39301 768.16925,214.85097 768,209.55443 768,165.89161 v -48.89442 l 25.25,-27.727787 c 13.8875,-15.25028 27.30477,-29.87465 29.81616,-32.49859 l 4.56616,-4.77081 h 216.19678 216.1968 l -0.2629,34.75 L 1259.5,121.5 h -117 -117 l -0.2734,-18.47342 c -0.1504,-10.160387 -0.6535,-18.853517 -1.1181,-19.318077 -0.4646,-0.46456 -8.1576,7.17348 -17.0955,16.973417 -8.938,9.79995 -17.1473,18.60558 -18.2428,19.56808 -1.8524,1.62756 -6.4549,1.75 -65.7835,1.75 h -63.79174 l -10.19754,11.09994 c -5.99341,6.52379 -9.82891,11.46857 -9.3034,11.99408 0.50662,0.50662 36.19621,1.00505 82.35008,1.15006 L 1003.5,146.5 l 0.2595,48.7044 0.2595,48.7044 -3.2517,3.7956 c -5.8641,6.84507 -43.9537,48.65182 -50.1513,55.0456 L 944.5578,309 H 833.25984 721.9619 Z M 968.467,271.81935 996,241.6387 v -43.71236 c 0,-38.93747 -0.1728,-43.77867 -1.5818,-44.31935 -0.87,-0.33385 -40.02,-0.60699 -87,-0.60699 C 849.02578,153 822,152.67141 822,151.96145 c 0,-0.5712 7.56246,-9.2337 16.80547,-19.25 L 855.61094,114.5 920.2226,114 c 35.5364,-0.275 64.782,-0.725 64.9903,-1 0.2083,-0.275 7.3331,-8.15067 15.8329,-17.501497 8.4998,-9.35082 17.3667,-19.12827 19.7042,-21.72765 4.1835,-4.65224 5.2132,-8.0973 3.643,-12.18906 -0.5477,-1.42732 -10.0447,-1.58145 -97.25,-1.57832 l -96.643,0.003 -22,24.10574 c -12.1,13.25816 -24.36721,26.790677 -27.26046,30.072277 l -5.26045,5.96654 0.26045,43.67425 L 776.5,207.5 l 86.82226,0.25554 c 73.84954,0.21735 86.77414,0.4649 86.50004,1.65679 -0.1773,0.77069 -7.7005,9.5432 -16.7184,19.49446 L 916.7078,247 h -64.24269 -64.24274 l -24.17612,26.49042 c -13.29687,14.56973 -23.89535,26.94473 -23.55217,27.5 C 740.90726,301.65896 774.8672,302 841.026,302 h 99.908 z m 283.926,-159.40114 c 0.7919,-2.06371 0.7919,-48.772707 0,-50.836417 -0.5481,-1.42832 -10.6749,-1.58179 -104.3779,-1.58179 h -103.7709 l -5.6221,6.40368 -5.6221,6.40369 V 93.403683 114 h 109.393 c 98.8296,0 109.4516,-0.15274 110,-1.58179 z M 1025,274.60699 c 0,-30.43944 0.1818,-34.46279 1.5818,-35 2.0675,-0.79337 229.7689,-0.79337 231.8364,0 1.4,0.53721 1.5818,4.56056 1.5818,35 V 309 H 1142.5 1025 Z M 1251.8,300.8 c 1.8433,-1.84332 1.6956,-51.14381 -0.1579,-52.68204 -0.9929,-0.8241 -30.4845,-1.05854 -109.75,-0.87244 L 1033.5,247.5 l -0.267,26.4305 c -0.2068,20.47835 0.018,26.61161 1,27.23469 0.6969,0.4423 49.6645,0.81108 108.817,0.8195 82.3339,0.0117 107.8314,-0.26604 108.75,-1.18469 z M 1795,274.60699 c 0,-30.43944 0.1818,-34.46279 1.5818,-35 2.0675,-0.79337 229.7689,-0.79337 231.8364,0 1.4,0.53721 1.5818,4.56056 1.5818,35 V 309 H 1912.5 1795 Z M 2021.8,300.8 c 1.8433,-1.84332 1.6956,-51.14381 -0.1579,-52.68204 -0.9929,-0.8241 -30.4845,-1.05854 -109.75,-0.87244 L 1803.5,247.5 l -0.267,26.4305 c -0.2068,20.47835 0.018,26.61161 1,27.23469 0.6969,0.4423 49.6645,0.81108 108.817,0.8195 82.3339,0.0117 107.8314,-0.26604 108.75,-1.18469 z M 4.67099,303.33766 C 4.30195,302.96861 4,261.32707 4,210.8009 v -91.86576 l 15.72201,-17.21757 c 8.6471,-9.469657 20.64169,-22.617567 26.65465,-29.217567 6.01295,-6.6 11.62405,-12.5625 12.46912,-13.25 1.20113,-0.97717 19.29904,-1.25 82.91867,-1.25 71.21978,0 81.34182,0.18426 81.05887,1.47555 C 222.6455,60.287103 211.25,73.330163 197.5,88.460133 l -25,27.509037 -42.75101,0.0154 -42.75102,0.0154 -5.84424,6.25 c -3.21434,3.4375 -9.95352,10.75 -14.97598,16.25 l -9.13173,10 0.22699,48 0.22699,48 h 58.5 58.5 v -17 -17 l -47.32143,-0.25984 c -41.05987,-0.22545 -47.2789,-0.45469 -47,-1.73244 C 80.35536,207.69776 91.75,194.66578 105.5,179.54774 l 25,-27.48735 48.75629,-0.0302 48.75628,-0.0302 -0.25628,75.75 -0.25629,75.75 -111.07901,0.25433 C 55.32754,303.8942 5.04004,303.70672 4.67099,303.33765 Z M 1026.25,215.33772 c -0.966,-0.3898 -1.25,-8.32339 -1.25,-34.92105 V 146 h 117.5 117.5 v 34.39301 c 0,30.43944 -0.1818,34.46279 -1.5818,35 -1.8919,0.72599 -230.3668,0.67158 -232.1682,-0.0553 z M 1251.8,206.8 c 0.8696,-0.86959 1.2,-8.11111 1.2,-26.3 0,-18.18889 -0.3304,-25.43041 -1.2,-26.3 -0.9184,-0.91841 -26.3596,-1.2 -108.4182,-1.2 -58.97,0 -107.93,0.27314 -108.8,0.60699 -1.3868,0.53214 -1.5818,3.84083 -1.5818,26.83333 0,14.42449 0.3,26.52635 0.6667,26.89301 0.3666,0.36667 49.3266,0.66667 108.8,0.66667 82.7703,0 108.4148,-0.28146 109.3333,-1.2 z m 544.45,8.53772 c -0.966,-0.3898 -1.25,-8.32339 -1.25,-34.92105 V 146 h 117.5 117.5 v 34.39301 c 0,30.43944 -0.1818,34.46279 -1.5818,35 -1.8919,0.72599 -230.3668,0.67158 -232.1682,-0.0553 z M 2021.8,206.8 c 0.8696,-0.86959 1.2,-8.11111 1.2,-26.3 0,-18.18889 -0.3304,-25.43041 -1.2,-26.3 -0.9184,-0.91841 -26.3596,-1.2 -108.4182,-1.2 -58.97,0 -107.93,0.27314 -108.8,0.60699 -1.3868,0.53214 -1.5818,3.84083 -1.5818,26.83333 0,14.42449 0.3,26.52635 0.6667,26.89301 0.3666,0.36667 49.3266,0.66667 108.8,0.66667 82.7703,0 108.4148,-0.28146 109.3333,-1.2 z"
     style="fill:#1b1415" />
</svg>
